<svg xmlns="http://www.w3.org/2000/svg" xmlns:xlink="http://www.w3.org/1999/xlink" viewBox="0 0 900 680" width="900" height="680"><rect width="100%" height="100%" fill="#dce8e8"/><defs><pattern id="lines" width="42" height="42" patternUnits="userSpaceOnUse"><path d="M42 0H0V42" fill="none" stroke="#b0c4c1" opacity=".16"/></pattern></defs><rect width="900" height="680" fill="url(#lines)"/><text x="73" y="91" fill="#557474" font-family="monospace" font-size="18" letter-spacing="2">THE PROFESSIONAL LEGIBILITY GAP</text><rect x="72" y="158" width="285" height="325" rx="10" fill="#e8f0eb" stroke="#a7c2b5"/><rect x="537" y="158" width="285" height="325" rx="10" fill="#31574d"/><text x="104" y="207" fill="#386657" font-family="monospace" font-size="14">LIVED EXPERTISE</text><text x="569" y="207" fill="#bbd7c7" font-family="monospace" font-size="14">RECOGNIZED VALUE</text><rect x="103" y="239" width="217" height="38" rx="4" fill="#cfdfd5"/><text x="121" y="264" fill="#35594c" font-family="monospace" font-size="15">EXPERIENCE</text><rect x="103" y="289" width="217" height="38" rx="4" fill="#cfdfd5"/><text x="121" y="314" fill="#35594c" font-family="monospace" font-size="15">KNOW-HOW</text><rect x="103" y="339" width="217" height="38" rx="4" fill="#cfdfd5"/><text x="121" y="364" fill="#35594c" font-family="monospace" font-size="15">IDENTITY</text><rect x="103" y="389" width="217" height="38" rx="4" fill="#cfdfd5"/><text x="121" y="414" fill="#35594c" font-family="monospace" font-size="15">GOALS</text><rect x="568" y="239" width="222" height="38" rx="4" fill="#467668"/><text x="583" y="264" fill="#eff4ea" font-family="monospace" font-size="14">CREDENTIALS</text><rect x="568" y="289" width="222" height="38" rx="4" fill="#467668"/><text x="583" y="314" fill="#eff4ea" font-family="monospace" font-size="14">VISIBILITY</text><rect x="568" y="339" width="222" height="38" rx="4" fill="#467668"/><text x="583" y="364" fill="#eff4ea" font-family="monospace" font-size="14">ACCESS</text><rect x="568" y="389" width="222" height="38" rx="4" fill="#467668"/><text x="583" y="414" fill="#eff4ea" font-family="monospace" font-size="14">OPPORTUNITY</text><path d="M358 329H539" stroke="#d67757" stroke-width="6" stroke-dasharray="7 10"/><path d="M520 315l21 14l-21 14" fill="none" stroke="#d67757" stroke-width="6"/><rect x="370" y="269" width="154" height="43" rx="5" fill="#e6ab8e"/><text x="447" y="294" text-anchor="middle" fill="#613e31" font-size="13" font-family="monospace">TRANSLATION</text><text x="450" y="549" text-anchor="middle" fill="#607979" font-family="monospace" font-size="17" letter-spacing="2">SKILLS ≠ RECOGNITION</text></svg>